<svg width="16" height="16" viewBox="0 0 16 16" fill="none" xmlns="http://www.w3.org/2000/svg">
<path d="M8.5 16C7.45833 16 6.48264 15.8021 5.57292 15.4062C4.66319 15.0104 3.87153 14.4757 3.19792 13.8021C2.52431 13.1285 1.98958 12.3368 1.59375 11.4271C1.19792 10.5174 1 9.54167 1 8.5C1 7.45833 1.19792 6.48264 1.59375 5.57292C1.98958 4.66319 2.52431 3.87153 3.19792 3.19792C3.87153 2.52431 4.66319 1.98958 5.57292 1.59375C6.48264 1.19792 7.45833 1 8.5 1C9.54167 1 10.5174 1.19792 11.4271 1.59375C12.3368 1.98958 13.1285 2.52431 13.8021 3.19792C14.4757 3.87153 15.0104 4.66319 15.4063 5.57292C15.8021 6.48264 16 7.45833 16 8.5C16 9.54167 15.8021 10.5174 15.4063 11.4271C15.0104 12.3368 14.4757 13.1285 13.8021 13.8021C13.1285 14.4757 12.3368 15.0104 11.4271 15.4062C10.5174 15.8021 9.54167 16 8.5 16ZM10.8333 12L12 10.8333L9.33333 8.16667V4.33333H7.66667V8.83333L10.8333 12ZM8.5 14.3333C10.125 14.3333 11.5035 13.7674 12.6354 12.6354C13.7674 11.5035 14.3333 10.125 14.3333 8.5C14.3333 6.875 13.7674 5.49653 12.6354 4.36458C11.5035 3.23264 10.125 2.66667 8.5 2.66667C6.875 2.66667 5.49653 3.23264 4.36458 4.36458C3.23264 5.49653 2.66667 6.875 2.66667 8.5C2.66667 10.125 3.23264 11.5035 4.36458 12.6354C5.49653 13.7674 6.875 14.3333 8.5 14.3333Z" fill="#90ACD0"/>
</svg>
