<?xml version="1.0" encoding="UTF-8"?>
<svg id="Layer_1" data-name="Layer 1" xmlns="http://www.w3.org/2000/svg" viewBox="0 0 368.73 87.04">
  <defs>
    <style>
      .cls-1 {
        fill: #eb2526;
      }

      .cls-2 {
        fill: #fff;
      }

      .cls-3 {
        fill: #9acc6a;
      }

      .cls-4 {
        fill: #066793;
      }

      .cls-5 {
        fill: #8cc540;
      }

      .cls-6 {
        fill: #f8981f;
      }

      .cls-7 {
        fill: #2185ad;
      }

      .cls-8 {
        fill: #f16623;
      }
    </style>
  </defs>
  <g>
    <polygon class="cls-7" points="81.75 61.98 56.89 49.39 56.89 25.37 81.75 37.89 81.75 61.98"/>
    <polygon class="cls-5" points="57.22 49.53 32.47 37.09 57.3 25.43 81.79 37.89 57.22 49.53"/>
    <polygon class="cls-4" points="57.22 73.71 32.47 61.26 57.3 49.61 81.79 62.07 57.22 73.71"/>
    <polygon class="cls-8" points="20.74 61.01 0 50.86 20.69 40.16 41.67 49.92 20.74 61.01"/>
    <polygon class="cls-7" points="57.45 49.74 32.6 37.15 32.6 13.13 57.45 25.66 57.45 49.74"/>
    <polygon class="cls-3" points="57.45 25.66 32.54 13.11 57.24 0 82.27 11.96 57.45 25.66"/>
    <polygon class="cls-1" points="24.27 87.04 .08 75.23 .08 29.91 24.28 41.7 24.27 87.04"/>
    <polygon class="cls-6" points="24.28 41.7 0 29.82 24.22 17.3 48.79 28.72 24.28 41.7"/>
    <path class="cls-2" d="M192.99,32.36v-13.28h6.38v48.15h-6.38v-28.43h-2.78c-.58,3.44-2.02,6.31-4.29,8.6-2.28,2.3-4.97,3.45-8.07,3.45-3.56,0-6.58-1.49-9.05-4.48-2.48-2.99-3.71-6.59-3.71-10.8s1.23-7.81,3.71-10.8c2.47-2.99,5.49-4.48,9.05-4.48,3.09,0,5.79,1.15,8.07,3.45,2.28,2.3,3.72,5.17,4.29,8.61h2.78ZM182.34,29.46c-1.26-1.68-2.76-2.52-4.5-2.52s-3.24.84-4.49,2.52c-1.26,1.67-1.89,3.72-1.89,6.12s.62,4.46,1.89,6.16c1.25,1.7,2.76,2.55,4.49,2.55s3.24-.85,4.5-2.55c1.25-1.7,1.89-3.75,1.89-6.16s-.63-4.45-1.89-6.12M202.62,18.18h6.62v50.54h-6.62V18.18Z"/>
    <path class="cls-2" d="M218.23,54.09h45.9v6.32h-45.9v-6.32ZM251.47,40.74h6.44v6.06h-33.36v-6.06h6.33l-.12-13.73h-5.63v-6.06h32.08v6.06h-5.57l-.17,13.73ZM237.08,27.01l.12,13.73h8l.17-13.73h-8.3Z"/>
    <path class="cls-2" d="M297.42,32.36v-13.28h6.39v48.15h-6.39v-28.43h-2.78c-.58,3.44-2.01,6.31-4.3,8.6-2.28,2.3-4.97,3.45-8.07,3.45-3.56,0-6.58-1.49-9.05-4.48-2.47-2.99-3.71-6.59-3.71-10.8s1.24-7.81,3.71-10.8c2.48-2.99,5.5-4.48,9.05-4.48,3.09,0,5.79,1.15,8.07,3.45,2.28,2.3,3.71,5.17,4.3,8.61h2.78ZM286.78,29.46c-1.26-1.68-2.76-2.52-4.5-2.52s-3.24.84-4.49,2.52c-1.26,1.67-1.88,3.72-1.88,6.12s.62,4.46,1.88,6.16c1.25,1.7,2.75,2.55,4.49,2.55s3.24-.85,4.5-2.55c1.25-1.7,1.89-3.75,1.89-6.16s-.63-4.45-1.89-6.12M307.05,18.18h6.61v50.54h-6.61V18.18Z"/>
    <path class="cls-2" d="M322.55,53.5h46.18v6.31h-46.18v-6.31ZM360.9,47.64c-1.89-.6-3.59-1.31-5.08-2.13-1.49-.81-2.96-1.85-4.44-3.09-1.58-1.33-2.87-2.59-3.85-3.77-.99-1.18-1.61-2.14-1.89-2.87-.27.78-.88,1.73-1.82,2.87-.95,1.14-2.22,2.36-3.8,3.64-1.51,1.29-3.04,2.36-4.58,3.19-1.55.84-3.29,1.54-5.22,2.09l-3.31-5.16c2.39-.86,4.62-1.96,6.67-3.32,2.05-1.35,3.69-2.92,4.93-4.67,1-1.42,1.82-3.16,2.43-5.22.62-2.06.94-4.23.94-6.51v-3.55h7.31v3.55c0,2.49.38,4.83,1.13,7.03.75,2.19,1.71,4,2.87,5.41,1.32,1.59,2.93,3.01,4.84,4.26,1.92,1.24,3.95,2.23,6.12,2.96l-3.25,5.28Z"/>
    <path class="cls-2" d="M113.59,65.64c-1.69-2.03-3.47-4.96-5.36-8.8-1.89-3.84-2.84-8.64-2.84-14.41s.95-10.51,2.84-14.32c1.89-3.82,3.67-6.78,5.36-8.89h2.65c-2.61,3.55-4.41,7.32-5.42,11.29-1.01,3.98-1.51,7.94-1.51,11.92s.51,8.02,1.54,11.91c1.03,3.9,2.82,7.66,5.39,11.29h-2.65ZM133.73,49.02v13.75h-5.12v-13.75h-16.78v-4.3h38.73v4.3h-16.83ZM145.78,42.2c-.78-.08-1.97-.35-3.58-.81-1.61-.46-3.19-1.05-4.73-1.77-1.47-.69-2.81-1.51-4.04-2.47-1.23-.95-1.97-1.71-2.23-2.29-.26.57-.99,1.34-2.2,2.29-1.21.96-2.56,1.78-4.07,2.47-1.54.73-3.12,1.32-4.73,1.77-1.62.46-2.81.73-3.58.81l-2.81-3.79c.96-.08,2.3-.34,4.04-.8,1.74-.46,3.46-1.11,5.15-1.95,1.51-.76,2.78-1.73,3.85-2.89,1.06-1.16,1.67-2.34,1.82-3.53.04-.07.05-.28.05-.63v-.57h-12.04v-4.3h29.04v4.3h-12.04v.55c0,.32.02.52.05.6.11,1.19.71,2.36,1.79,3.55,1.08,1.19,2.37,2.16,3.88,2.92,1.79.88,3.55,1.54,5.25,1.98,1.7.44,3.02.7,3.93.77l-2.8,3.79ZM154.27,56.84c-1.89,3.84-3.67,6.77-5.36,8.8h-2.65c2.57-3.63,4.37-7.39,5.4-11.29,1.03-3.89,1.54-7.86,1.54-11.91s-.5-7.94-1.51-11.92c-1-3.97-2.81-7.74-5.42-11.29h2.65c1.73,2.11,3.52,5.06,5.39,8.89,1.87,3.82,2.81,8.59,2.81,14.32s-.94,10.57-2.84,14.41"/>
  </g>
  <g>
    <path class="cls-2" d="M109.35,75.12h4.66v.94h-3.53v2.87h3.26v.92h-3.26v3.92h-1.13v-8.65Z"/>
    <path class="cls-2" d="M134.32,79.36c0,2.96-1.81,4.55-4.02,4.55s-3.89-1.78-3.89-4.4c0-2.75,1.7-4.54,4.01-4.54s3.9,1.81,3.9,4.39ZM127.59,79.49c0,1.86,1,3.52,2.77,3.52s2.77-1.63,2.77-3.6c0-1.73-.9-3.53-2.76-3.53s-2.78,1.72-2.78,3.61Z"/>
    <path class="cls-2" d="M153.11,83.5c-.4.21-1.23.41-2.28.41-2.44,0-4.26-1.54-4.26-4.39s1.84-4.54,4.52-4.54c1.07,0,1.76.23,2.05.39l-.28.91c-.41-.21-1.01-.36-1.73-.36-2.03,0-3.38,1.3-3.38,3.57,0,2.13,1.22,3.48,3.31,3.48.69,0,1.38-.14,1.83-.36l.22.9Z"/>
    <path class="cls-2" d="M166.95,75.12v5.13c0,1.93.86,2.75,2.01,2.75,1.27,0,2.1-.85,2.1-2.75v-5.13h1.13v5.06c0,2.66-1.4,3.73-3.27,3.73-1.77,0-3.11-1-3.11-3.69v-5.09h1.13Z"/>
    <path class="cls-2" d="M185.31,82.41c.5.32,1.22.57,1.99.57,1.14,0,1.8-.6,1.8-1.48,0-.79-.46-1.27-1.63-1.7-1.41-.51-2.28-1.26-2.28-2.46,0-1.35,1.12-2.35,2.8-2.35.87,0,1.53.21,1.9.43l-.31.91c-.27-.17-.84-.41-1.63-.41-1.18,0-1.63.71-1.63,1.3,0,.81.52,1.2,1.72,1.67,1.46.56,2.19,1.27,2.19,2.54,0,1.33-.97,2.5-3.02,2.5-.83,0-1.74-.25-2.2-.57l.29-.94Z"/>
    <path class="cls-2" d="M224.51,79.36c0,2.96-1.81,4.55-4.02,4.55s-3.89-1.78-3.89-4.4c0-2.75,1.7-4.54,4.01-4.54s3.9,1.81,3.9,4.39ZM217.78,79.49c0,1.86,1,3.52,2.77,3.52s2.77-1.63,2.77-3.6c0-1.73-.9-3.53-2.76-3.53s-2.78,1.72-2.78,3.61Z"/>
    <path class="cls-2" d="M237.26,83.77v-8.65h1.23l2.76,4.38c.63,1.01,1.14,1.92,1.54,2.81h.04c-.1-1.17-.13-2.22-.13-3.57v-3.62h1.05v8.65h-1.13l-2.74-4.39c-.6-.97-1.18-1.95-1.6-2.89l-.04.02c.07,1.09.08,2.13.08,3.57v3.69h-1.05Z"/>
    <path class="cls-2" d="M270.91,82.41c.5.32,1.22.57,1.99.57,1.14,0,1.81-.6,1.81-1.48,0-.79-.46-1.27-1.63-1.7-1.41-.51-2.28-1.26-2.28-2.46,0-1.35,1.12-2.35,2.8-2.35.87,0,1.52.21,1.9.43l-.31.91c-.27-.17-.85-.41-1.63-.41-1.18,0-1.63.71-1.63,1.3,0,.81.52,1.2,1.72,1.67,1.46.56,2.19,1.27,2.19,2.54,0,1.33-.97,2.5-3.01,2.5-.83,0-1.75-.25-2.21-.57l.29-.94Z"/>
    <path class="cls-2" d="M290.08,81.05l-.9,2.72h-1.16l2.95-8.65h1.33l2.95,8.65h-1.19l-.92-2.72h-3.07ZM292.93,80.18l-.86-2.49c-.19-.56-.32-1.08-.45-1.58h-.02c-.13.5-.26,1.04-.44,1.57l-.85,2.5h2.62Z"/>
    <path class="cls-2" d="M307.84,75.12h4.66v.94h-3.53v2.87h3.26v.92h-3.26v3.92h-1.13v-8.65Z"/>
    <path class="cls-2" d="M329.88,79.72h-3.35v3.12h3.75v.94h-4.88v-8.65h4.68v.94h-3.55v2.73h3.35v.93Z"/>
    <path class="cls-2" d="M344.89,76.08h-2.63v-.95h6.4v.95h-2.65v7.7h-1.13v-7.7Z"/>
    <path class="cls-2" d="M363.21,83.77v-3.67l-2.75-4.98h1.29l1.22,2.39c.32.65.59,1.18.86,1.78h.03c.23-.56.54-1.13.87-1.78l1.24-2.39h1.26l-2.89,4.97v3.68h-1.13Z"/>
  </g>
</svg>