<svg width="27" height="26" viewBox="0 0 27 26" fill="none" xmlns="http://www.w3.org/2000/svg">
<path d="M13.8197 0.970464L7.14123 14.3544C6.66419 15.4697 7.45925 16.7443 8.57233 16.7443H15.0919C16.0459 16.7443 16.682 17.541 16.682 18.3376V24.3922C16.682 26.1449 19.0672 26.6228 19.8622 25.0295L26.8588 10.6897C27.3358 9.57433 26.5408 8.29968 25.4277 8.29968H18.5901C17.636 8.29968 17 7.50302 17 6.70636V1.60783C16.841 -0.144818 14.4558 -0.622852 13.8197 0.970464Z" fill="#DDE2EE"/>
<path d="M6.81973 0.970464L0.141232 14.3544C-0.335805 15.4697 0.459247 16.7443 1.57233 16.7443H8.09186C9.04593 16.7443 9.68198 17.541 9.68198 18.3376V24.3922C9.68198 26.1449 12.0672 26.6228 12.8622 25.0295L19.8588 10.6897C20.3358 9.57433 19.5408 8.29968 18.4277 8.29968H11.5901C10.636 8.29968 9.99998 7.50302 9.99998 6.70636V1.60783C9.84096 -0.144818 7.45578 -0.622852 6.81973 0.970464Z" fill="#91CD2C"/>
</svg>
