<svg width="28" height="24" viewBox="0 0 28 24" fill="none" xmlns="http://www.w3.org/2000/svg">
<rect y="19.8027" width="28" height="4" fill="#5E9DF2"/>
<path d="M2.75293 11.0167C2.75293 4.93237 7.68529 0 13.7697 0C19.8541 0 24.7864 4.93236 24.7864 11.0167V19.6515H2.75293V11.0167Z" fill="#DDE2EE"/>
<path d="M12.7104 5.00383C12.7104 4.85885 12.8295 4.74023 12.9752 4.74023H14.564C14.7096 4.74023 14.8288 4.85885 14.8288 5.00383V11.0665C14.8288 11.2114 14.7096 11.3301 14.564 11.3301H12.9752C12.8295 11.3301 12.7104 11.2114 12.7104 11.0665V5.00383ZM13.7696 16.6019C13.3538 16.5935 12.958 16.4231 12.6669 16.1275C12.3759 15.8318 12.2129 15.4343 12.2129 15.0204C12.2129 14.6064 12.3759 14.209 12.6669 13.9133C12.958 13.6176 13.3538 13.4473 13.7696 13.4388C14.1853 13.4473 14.5812 13.6176 14.8722 13.9133C15.1633 14.209 15.3263 14.6064 15.3263 15.0204C15.3263 15.4343 15.1633 15.8318 14.8722 16.1275C14.5812 16.4231 14.1853 16.5935 13.7696 16.6019Z" fill="#5E9DF2"/>
</svg>
