<svg width="29" height="22" viewBox="0 0 29 22" fill="none" xmlns="http://www.w3.org/2000/svg">
<path d="M19.318 9.33333C21.6192 9.33333 23.4847 7.46785 23.4847 5.16667C23.4847 2.86548 21.6192 1 19.318 1C17.0168 1 15.1514 2.86548 15.1514 5.16667C15.1514 7.46785 17.0168 9.33333 19.318 9.33333Z" fill="#DDE2EE"/>
<path d="M28.6929 21.833C28.6929 16.6554 24.4955 12.458 19.3179 12.458C14.1402 12.458 9.94287 16.6554 9.94287 21.833" fill="#DDE2EE"/>
<path d="M9.37516 9.33333C11.6763 9.33333 13.5418 7.46785 13.5418 5.16667C13.5418 2.86548 11.6763 1 9.37516 1C7.07398 1 5.2085 2.86548 5.2085 5.16667C5.2085 7.46785 7.07398 9.33333 9.37516 9.33333Z" fill="#5E9DF2"/>
<path d="M18.75 21.833C18.75 16.6554 14.5527 12.458 9.375 12.458C4.19734 12.458 0 16.6554 0 21.833" fill="#5E9DF2"/>
</svg>
