<svg width="117" height="64" viewBox="0 0 117 64" fill="none" xmlns="http://www.w3.org/2000/svg">
<path d="M90.4194 9.46588C106.04 19.9313 116.364 37.8373 116.364 58.1817H96.4497C96.4497 45.314 90.1719 33.9131 80.4966 26.9288L90.4194 9.46588Z" fill="#37BD84"/>
<path d="M39.0649 25.6855C27.5367 32.2738 19.793 44.7374 19.793 59.013H0C0 37.2566 11.8305 18.3002 29.3086 8.31171L39.0649 25.6855Z" fill="#ED6B6B"/>
<path d="M58.4163 0C68.9048 0 78.7698 2.80424 87.2728 7.71094L77.3675 24.9355C71.7967 21.7209 65.3362 19.8779 58.4163 19.8779C52.9405 19.878 47.7533 21.0324 43.0667 23.1064L33.2903 5.73633C40.8983 2.05923 49.4286 2.37693e-05 58.4163 0Z" fill="#FFB500"/>
<path d="M59.0132 64C61.3084 64 63.169 62.1393 63.169 59.8441C63.169 57.5489 61.3084 55.6883 59.0132 55.6883C56.718 55.6883 54.8573 57.5489 54.8573 59.8441C54.8573 62.1393 56.718 64 59.0132 64Z" fill="#ED6B6B"/>
<path d="M59.1547 59.4364L55.1404 60.6753L50.9622 42.0766L48.2259 29.9045C48.0457 29.1302 49.2745 28.7586 49.6186 29.4709L54.9765 40.8377L63.169 58.1976L59.1547 59.4364Z" fill="#ED6B6B"/>
</svg>
