<svg width="18" height="18" viewBox="0 0 18 18" fill="none" xmlns="http://www.w3.org/2000/svg">
<path d="M8.72727 3.31818V1H10.2727V3.31818H8.72727ZM8.72727 18V15.6818H10.2727V18H8.72727ZM15.6818 10.2727V8.72727H18V10.2727H15.6818ZM1 10.2727V8.72727H3.31818V10.2727H1ZM14.6773 5.40455L13.5955 4.32273L14.9477 2.93182L16.0682 4.05227L14.6773 5.40455ZM4.05227 16.0682L2.93182 14.9477L4.32273 13.5955L5.40455 14.6773L4.05227 16.0682ZM14.9477 16.0682L13.5955 14.6773L14.6773 13.5955L16.0682 14.9477L14.9477 16.0682ZM4.32273 5.40455L2.93182 4.05227L4.05227 2.93182L5.40455 4.32273L4.32273 5.40455ZM9.5 14.1364C8.21212 14.1364 7.11742 13.6856 6.21591 12.7841C5.31439 11.8826 4.86364 10.7879 4.86364 9.5C4.86364 8.21212 5.31439 7.11742 6.21591 6.21591C7.11742 5.31439 8.21212 4.86364 9.5 4.86364C10.7879 4.86364 11.8826 5.31439 12.7841 6.21591C13.6856 7.11742 14.1364 8.21212 14.1364 9.5C14.1364 10.7879 13.6856 11.8826 12.7841 12.7841C11.8826 13.6856 10.7879 14.1364 9.5 14.1364ZM9.5 12.5909C10.3629 12.5909 11.0938 12.2915 11.6926 11.6926C12.2915 11.0938 12.5909 10.3629 12.5909 9.5C12.5909 8.63712 12.2915 7.90625 11.6926 7.30739C11.0938 6.70852 10.3629 6.40909 9.5 6.40909C8.63712 6.40909 7.90625 6.70852 7.30739 7.30739C6.70852 7.90625 6.40909 8.63712 6.40909 9.5C6.40909 10.3629 6.70852 11.0938 7.30739 11.6926C7.90625 12.2915 8.63712 12.5909 9.5 12.5909Z" fill="#90ACD0"/>
</svg>
